<svg xmlns="http://www.w3.org/2000/svg" xmlns:xlink="http://www.w3.org/1999/xlink" width="53.984" height="53.984" viewBox="0 0 53.984 53.984">
    <defs>
        <clipPath id="clip-path">
            <path id="Path_993" data-name="Path 993" d="M0,0H53.984V53.984H0Z" fill="none"/>
        </clipPath>
    </defs>
    <g id="Group_403" data-name="Group 403" clip-path="url(#clip-path)">
        <path id="Path_991" data-name="Path 991" d="M23.244,39.99,21.31,38.055a6.741,6.741,0,0,1,.045-9.582l1.889-1.844a21.011,21.011,0,0,0-2.249-.135c-6.006,0-17.995,3.014-17.995,9v4.5ZM20.995,21.995a9,9,0,1,0-9-9A8.995,8.995,0,0,0,20.995,21.995Z" transform="translate(3.748 4.997)" fill="#fff"/>
        <path id="Path_992" data-name="Path 992" d="M20.9,28.366a2.267,2.267,0,0,1-3.194,0l-4.656-4.7a2.227,2.227,0,0,1,0-3.127l.022-.022a2.213,2.213,0,0,1,3.149,0L19.3,23.6l9.965-10.032a2.24,2.24,0,0,1,3.172,0l.022.022a2.227,2.227,0,0,1,0,3.127Z" transform="translate(15.498 16.126)" fill="#fff"/>
    </g>
</svg>
