<svg xmlns="http://www.w3.org/2000/svg" width="59.001" height="45.076" viewBox="0 0 59.001 45.076">
    <g id="open-book" transform="translate(0 -35.048)">
        <g id="Group_386" data-name="Group 386" transform="translate(0 35.048)">
            <g id="Group_385" data-name="Group 385" transform="translate(0 0)">
                <path id="Path_886" data-name="Path 886" d="M36.939,35.049h0a2.081,2.081,0,0,0-1.479.613,2.1,2.1,0,0,0-.621,1.5V68.819a2.118,2.118,0,0,0,2.114,2.111c4.914.012,13.148,1.036,18.828,6.98V44.778a2.023,2.023,0,0,0-.29-1.069C50.823,36.2,41.864,35.061,36.939,35.049Z" transform="translate(-27.913 -35.049)" fill="#e9a870"/>
                <path id="Path_887" data-name="Path 887" d="M177.693,68.819V37.159a2.1,2.1,0,0,0-.621-1.5,2.081,2.081,0,0,0-1.479-.613h-.005c-4.925.012-13.884,1.152-18.546,8.66a2.023,2.023,0,0,0-.29,1.069V77.909c5.68-5.944,13.914-6.968,18.828-6.98A2.118,2.118,0,0,0,177.693,68.819Z" transform="translate(-125.611 -35.048)" fill="#e9a870"/>
                <path id="Path_888" data-name="Path 888" d="M194.306,71.8h-1.531V98.27a5.4,5.4,0,0,1-5.384,5.389c-4.168.01-11.042.825-15.909,5.432,8.419-2.061,17.294-.721,22.351.431a2.111,2.111,0,0,0,2.584-2.057V73.912A2.113,2.113,0,0,0,194.306,71.8Z" transform="translate(-137.416 -64.5)" fill="#e9a870"/>
                <path id="Path_889" data-name="Path 889" d="M3.642,98.27V71.8H2.111A2.114,2.114,0,0,0,0,73.912v33.553a2.111,2.111,0,0,0,2.584,2.057c5.058-1.153,13.933-2.493,22.351-.431-4.868-4.607-11.741-5.422-15.909-5.432A5.4,5.4,0,0,1,3.642,98.27Z" transform="translate(0 -64.5)" fill="#e9a870"/>
            </g>
        </g>
    </g>
</svg>
