<svg xmlns="http://www.w3.org/2000/svg" xmlns:xlink="http://www.w3.org/1999/xlink" width="64.781" height="54.677" viewBox="0 0 64.781 54.677">
    <defs>
        <clipPath id="clip-path">
            <rect id="Rectangle_159" data-name="Rectangle 159" width="64.781" height="54.677" fill="#fff"/>
        </clipPath>
    </defs>
    <g id="Group_368" data-name="Group 368" clip-path="url(#clip-path)">
        <path id="Path_869" data-name="Path 869" d="M87.108,72.358a4.874,4.874,0,0,0-1.35-3.332l-9.518-9.99h0A6.287,6.287,0,0,0,71.708,57.1H68.661a1.253,1.253,0,0,0,0,2.506h3.047a3.77,3.77,0,0,1,2.005.582L67.9,70.06,60.815,59.6h3.46a1.253,1.253,0,1,0,0-2.506H45.2a6.286,6.286,0,0,0-4.529,1.939l0,0-9.518,9.99A4.874,4.874,0,0,0,29.8,72.362c0,.014,0,.028,0,.042a5.672,5.672,0,0,0,1.356,3.679l22.442,26.293a6.339,6.339,0,0,0,3.528,2.1l.029.006q.139.029.28.051l.16.024.108.013.2.021.054.005.03,0,.154.009.088,0,.152,0,.089,0,.123,0,.1,0c.065,0,.129-.006.193-.01l.025,0a6.339,6.339,0,0,0,3.695-1.513,6.4,6.4,0,0,0,.712-.711l10.26-12.021a1.253,1.253,0,0,0-1.906-1.627l-9.694,11.357,6.974-26.429h15.4a3.156,3.156,0,0,1-.5.8l-9.306,10.9a1.253,1.253,0,0,0,1.906,1.627l9.306-10.9A5.671,5.671,0,0,0,87.11,72.4c0-.015,0-.031,0-.046M58.85,102.09c-.062.006-.123.011-.185.014l-.042,0-.142,0h-.076l-.115,0-.085,0-.118-.009-.035,0-7.5-28.432h15.8ZM32.961,70.755l2.79-2.928,5.582-5.859,5.4,9.183H32.655a2.411,2.411,0,0,1,.306-.4m18.327.4,7.165-10.57,7.164,10.57ZM45.2,59.6H56.089L49,70.06l-5.808-9.877A3.77,3.77,0,0,1,45.2,59.6M33.058,74.456a3.162,3.162,0,0,1-.5-.8h15.4l6.974,26.429Zm37.113-3.3,5.4-9.183,8.372,8.787h0a2.39,2.39,0,0,1,.305.4Z" transform="translate(-26.062 -49.941)" fill="#fff"/>
        <path id="Path_870" data-name="Path 870" d="M475.031,86.84H471.7a1.253,1.253,0,0,0,0,2.506h3.326a1.253,1.253,0,0,0,0-2.506" transform="translate(-411.503 -75.959)" fill="#fff"/>
        <path id="Path_871" data-name="Path 871" d="M454.045,30.293a1.249,1.249,0,0,0,.886-.367l2.352-2.352a1.253,1.253,0,1,0-1.772-1.772l-2.352,2.352a1.253,1.253,0,0,0,.886,2.139" transform="translate(-396.056 -22.247)" fill="#fff"/>
        <path id="Path_872" data-name="Path 872" d="M411.41,5.832a1.253,1.253,0,0,0,1.253-1.253V1.253a1.253,1.253,0,0,0-2.506,0V4.579a1.253,1.253,0,0,0,1.253,1.253" transform="translate(-358.763)" fill="#fff"/>
        <path id="Path_873" data-name="Path 873" d="M5.832,88.093A1.253,1.253,0,0,0,4.579,86.84H1.253a1.253,1.253,0,0,0,0,2.506H4.579a1.253,1.253,0,0,0,1.253-1.253" transform="translate(0 -75.959)" fill="#fff"/>
        <path id="Path_874" data-name="Path 874" d="M28.154,29.925a1.253,1.253,0,1,0,1.772-1.772L27.574,25.8A1.253,1.253,0,0,0,25.8,27.573Z" transform="translate(-22.248 -22.247)" fill="#fff"/>
        <path id="Path_875" data-name="Path 875" d="M88.094,5.832a1.253,1.253,0,0,0,1.253-1.253V1.253a1.253,1.253,0,0,0-2.506,0V4.579a1.253,1.253,0,0,0,1.253,1.253" transform="translate(-75.96)" fill="#fff"/>
    </g>
</svg>
