<svg id="Group_372" data-name="Group 372" xmlns="http://www.w3.org/2000/svg" width="37.115" height="26.097" viewBox="0 0 37.115 26.097">
    <path id="Path_879" data-name="Path 879" d="M33.853,76H3.262A3.267,3.267,0,0,0,0,79.262V98.835A3.267,3.267,0,0,0,3.262,102.1H33.853a3.266,3.266,0,0,0,3.262-3.262V79.262A3.265,3.265,0,0,0,33.853,76ZM33.4,78.175,20.864,90.641a3.262,3.262,0,0,1-4.615,0L3.719,78.175ZM2.175,98.392V79.706l9.4,9.348Zm1.546,1.53,9.394-9.334,1.6,1.591a5.437,5.437,0,0,0,7.687,0L24,90.588,33.4,99.922Zm31.22-1.53-9.4-9.338,9.4-9.348Z" transform="translate(0 -76)" fill="#fff"/>
</svg>
