<svg id="Group_370" data-name="Group 370" xmlns="http://www.w3.org/2000/svg" xmlns:xlink="http://www.w3.org/1999/xlink" width="69.091" height="76" viewBox="0 0 69.091 76">
    <defs>
        <clipPath id="clip-path">
            <rect id="Rectangle_157" data-name="Rectangle 157" width="69.091" height="76" transform="translate(0 0)" fill="#212e84"/>
        </clipPath>
    </defs>
    <g id="Group_364" data-name="Group 364" transform="translate(0 0)" clip-path="url(#clip-path)">
        <path id="Path_855" data-name="Path 855" d="M152.989,191.989a2.994,2.994,0,0,1,.006-5.989H153a3,3,0,0,1,2.987,2.994,3,3,0,0,1-2.994,2.994Zm0-3a.022.022,0,0,0,.012,0s-.009,0-.012,0" transform="translate(-127.33 -158.48)" fill="#212e84"/>
        <path id="Path_856" data-name="Path 856" d="M221.5,12.876a1.5,1.5,0,0,1-1.5-1.5V1.5a1.5,1.5,0,1,1,2.994,0v9.882a1.5,1.5,0,0,1-1.5,1.5" transform="translate(-186.849 -0.328)" fill="#212e84"/>
        <path id="Path_857" data-name="Path 857" d="M221.5,438.876a1.5,1.5,0,0,1-1.5-1.5V427.5a1.5,1.5,0,0,1,2.994,0v9.882a1.5,1.5,0,0,1-1.5,1.5" transform="translate(-186.849 -362.548)" fill="#212e84"/>
        <path id="Path_858" data-name="Path 858" d="M38.14,85.637a1.492,1.492,0,0,1-1.059-.439l-6.353-6.353a1.5,1.5,0,0,1,2.117-2.117L39.2,83.081a1.5,1.5,0,0,1-1.059,2.556" transform="translate(-25.543 -65.196)" fill="#212e84"/>
        <path id="Path_859" data-name="Path 859" d="M375.13,392.628a1.493,1.493,0,0,1-1.059-.438l-6.353-6.353a1.5,1.5,0,0,1,2.117-2.117l6.352,6.353a1.5,1.5,0,0,1-1.059,2.556" transform="translate(-312.079 -326.224)" fill="#212e84"/>
        <path id="Path_860" data-name="Path 860" d="M368.777,85.637a1.5,1.5,0,0,1-1.059-2.556l6.353-6.353a1.5,1.5,0,0,1,2.117,2.117L369.835,85.2a1.493,1.493,0,0,1-1.059.439" transform="translate(-312.078 -65.196)" fill="#212e84"/>
        <path id="Path_861" data-name="Path 861" d="M31.787,392.628a1.5,1.5,0,0,1-1.059-2.556l6.353-6.353a1.5,1.5,0,0,1,2.117,2.117l-6.353,6.352a1.493,1.493,0,0,1-1.059.439" transform="translate(-25.543 -326.225)" fill="#212e84"/>
        <path id="Path_862" data-name="Path 862" d="M34.436,157.922c-8.473,0-17.076-3.488-24.878-10.086A54.383,54.383,0,0,1,.255,137.8a1.5,1.5,0,0,1,0-1.671,54.383,54.383,0,0,1,9.3-10.039c7.8-6.6,16.405-10.086,24.878-10.086s17.076,3.488,24.878,10.086a54.382,54.382,0,0,1,9.3,10.039,1.5,1.5,0,0,1,0,1.671,54.381,54.381,0,0,1-9.3,10.039c-7.8,6.6-16.405,10.086-24.878,10.086M3.344,136.96a54.542,54.542,0,0,0,8.211,8.643c5.046,4.254,13.113,9.324,22.881,9.324,9.8,0,17.886-5.1,22.944-9.378a54.355,54.355,0,0,0,8.147-8.588,54.554,54.554,0,0,0-8.211-8.643c-5.046-4.254-13.113-9.324-22.881-9.324-9.8,0-17.886,5.1-22.945,9.378a54.358,54.358,0,0,0-8.147,8.588" transform="translate(0.212 -98.961)" fill="#212e84"/>
        <path id="Path_863" data-name="Path 863" d="M153.48,192.95h-.007A13.49,13.49,0,0,1,140,179.475c0-.115,0-.23.005-.344,0-.1,0-.19.01-.286q.007-.166.019-.332c0-.007,0-.014,0-.02l0-.061c0-.056.009-.113.015-.169l0-.038c.009-.1.019-.192.03-.283,0-.007,0-.014,0-.022.012-.1.024-.2.039-.307.01-.074.02-.148.033-.222.013-.094.028-.186.046-.28.005-.033.011-.065.017-.1a1.5,1.5,0,0,1,2.944.551h0c0,.023-.007.045-.011.068-.012.062-.023.124-.031.187,0,.021-.006.043-.01.064-.008.046-.014.092-.02.137l0,.024c-.01.064-.017.129-.025.193,0,.014,0,.029,0,.043-.008.067-.016.134-.022.2l0,.044,0,.033c0,.033-.006.065-.008.1l-.005.068c-.006.084-.01.169-.014.253,0,.007,0,.014,0,.021,0,.066-.006.13-.007.2v.017c0,.087,0,.176,0,.264a10.492,10.492,0,0,0,10.48,10.48h.006a10.5,10.5,0,0,0,2.107-.214,10.349,10.349,0,0,0,1-.258c.324-.1.648-.22.961-.352.152-.064.294-.129.433-.2a10.429,10.429,0,0,0,2.4-1.586q.261-.228.5-.467c.18-.18.352-.365.514-.553a9.733,9.733,0,0,0,.609-.772l.039-.055c.091-.13.175-.255.253-.378.138-.215.268-.433.387-.655a10.483,10.483,0,0,0-9.215-15.476c-.089,0-.179,0-.267,0h-.016c-.068,0-.134,0-.2.007h-.016l-.153.008-.055,0-.027,0q-.046,0-.092.007l-.037,0-.027,0-.124.011-.025,0-.09.009-.154.017-.124.017-.051.007-.037.005c-.046.006-.092.012-.138.02l-.077.012-.06.011-.164.029c-.064.011-.118.022-.173.034l-.036.007c-.068.013-.135.029-.2.044l-.03.007c-.082.019-.167.039-.252.061s-.155.041-.228.062l-.024.007c-.139.039-.278.082-.414.128l-.019.006-.116.039-.016.006-.147.052-.017.006-.128.047a1.5,1.5,0,1,1-1.086-2.79c.062-.024.124-.047.186-.069s.129-.047.2-.071.127-.044.192-.065c.183-.062.37-.119.556-.171q.158-.046.322-.088c.108-.028.22-.055.333-.081l.031-.007c.092-.021.183-.041.274-.059s.179-.037.27-.053l.19-.034c.051-.01.1-.018.155-.025.068-.011.136-.021.2-.03l.074-.01.175-.024.021,0c.074-.009.149-.018.223-.025l.071-.007c.079-.009.159-.016.238-.022l.108-.008c.055,0,.11-.009.165-.011l.2-.01c.095-.005.193-.009.294-.011s.23,0,.345,0a13.477,13.477,0,0,1,11.847,19.9c-.154.285-.322.569-.5.842-.1.157-.208.318-.329.49l-.032.044,0,.006a12.692,12.692,0,0,1-.8,1.011c-.2.237-.427.477-.656.706-.2.205-.422.409-.644.6a13.4,13.4,0,0,1-3.081,2.035c-.178.086-.363.169-.561.253-.4.171-.821.323-1.239.454a13.338,13.338,0,0,1-1.3.333,13.516,13.516,0,0,1-2.705.274m-11.79-15.638,1.472.274,0-.022Zm1.48.221v0m8.607-8.4h0m.187-.029h0" transform="translate(-118.826 -141.475)" fill="#212e84"/>
        <path id="Path_864" data-name="Path 864" d="M195.989,227.978a5.989,5.989,0,1,1,5.989-5.989,6,6,0,0,1-5.989,5.989m0-8.983a2.994,2.994,0,1,0,2.994,2.994,3,3,0,0,0-2.994-2.994" transform="translate(-161.341 -183.989)" fill="#212e84"/>
    </g>
</svg>
