<svg xmlns="http://www.w3.org/2000/svg" width="35.758" height="35.758" viewBox="0 0 35.758 35.758">
    <g id="Layer_2" data-name="Layer 2" transform="translate(-5.46 -5.46)">
        <path id="Path_994" data-name="Path 994" d="M3.277,13.383a.777.777,0,0,0,.777-.777V6.561A2.509,2.509,0,0,1,6.561,4.055h6.045a.777.777,0,0,0,0-1.555H6.561A4.066,4.066,0,0,0,2.5,6.561v6.045A.777.777,0,0,0,3.277,13.383Z" transform="translate(2.96 2.96)" fill="#fff"/>
        <path id="Path_995" data-name="Path 995" d="M25.322,2.5H19.277a.777.777,0,0,0,0,1.555h6.045a2.509,2.509,0,0,1,2.506,2.506v6.045a.777.777,0,0,0,1.555,0V6.561A4.066,4.066,0,0,0,25.322,2.5Z" transform="translate(11.835 2.96)" fill="#fff"/>
        <path id="Path_996" data-name="Path 996" d="M12.606,27.828H6.561a2.509,2.509,0,0,1-2.506-2.506V19.277a.777.777,0,0,0-1.555,0v6.045a4.066,4.066,0,0,0,4.061,4.061h6.045a.777.777,0,0,0,0-1.555Z" transform="translate(2.96 11.835)" fill="#fff"/>
        <path id="Path_997" data-name="Path 997" d="M28.606,18.5a.777.777,0,0,0-.777.777v6.045a2.509,2.509,0,0,1-2.506,2.506H19.277a.777.777,0,0,0,0,1.555h6.045a4.066,4.066,0,0,0,4.061-4.061V19.277A.777.777,0,0,0,28.606,18.5Z" transform="translate(11.835 11.835)" fill="#fff"/>
        <path id="Path_998" data-name="Path 998" d="M32.365,27.292V13.7a.906.906,0,0,0-.453-.785l-11.778-6.8a.906.906,0,0,0-.906,0l-11.769,6.8a.906.906,0,0,0-.453.785V27.292a.906.906,0,0,0,.453.785l11.778,6.8a.906.906,0,0,0,.906,0l11.778-6.8A.906.906,0,0,0,32.365,27.292ZM19.68,7.952l9.966,5.75-9.966,5.75L9.723,13.7ZM8.817,15.271l9.957,5.75v11.5l-9.957-5.75ZM20.586,32.518V21.02l9.966-5.75v11.5Z" transform="translate(3.658 2.842)" fill="#fff"/>
    </g>
</svg>
