<svg xmlns="http://www.w3.org/2000/svg" width="61.423" height="61.677" viewBox="0 0 61.423 61.677">
    <g id="Group_394" data-name="Group 394" transform="translate(-0.129)">
        <g id="Group_390" data-name="Group 390" transform="translate(0.129)">
            <rect id="Rectangle_164" data-name="Rectangle 164" width="61.401" height="0.001" transform="translate(0.012 33.723)" fill="#c42126"/>
            <rect id="Rectangle_165" data-name="Rectangle 165" width="55.003" height="0.001" transform="translate(3.21 16.888)" fill="#c42126"/>
            <rect id="Rectangle_166" data-name="Rectangle 166" width="59.375" height="0.001" transform="translate(1.023 22.499)" fill="#c42126"/>
            <path id="Path_915" data-name="Path 915" d="M101.78,431.347h35.169l0,0H101.778Z" transform="translate(-88.653 -375.18)" fill="#c42126"/>
            <path id="Path_916" data-name="Path 916" d="M224.792,0c-.606,0-1.207.022-1.8.056H226.6C226,.022,225.4,0,224.792,0Z" transform="translate(-194.081)" fill="#c42126"/>
            <rect id="Rectangle_167" data-name="Rectangle 167" width="61.421" height="0.001" transform="translate(0 28.111)" fill="#c42126"/>
        </g>
        <g id="Group_391" data-name="Group 391" transform="translate(29.535 44.944)">
            <path id="Path_926" data-name="Path 926" d="M303.625,350.778h15.013a30.885,30.885,0,0,0,3.711-5.611H305.04A48.826,48.826,0,0,1,303.625,350.778Z" transform="translate(-293.624 -345.167)" fill="#19bfbe"/>
            <path id="Path_927" data-name="Path 927" d="M227,473.464l-.187-.007Z" transform="translate(-226.818 -456.753)" fill="#19bfbe"/>
            <path id="Path_928" data-name="Path 928" d="M236.837,436.87a30.694,30.694,0,0,0,17.585-5.51H243.261C241.28,434.773,239.973,436.87,236.837,436.87Z" transform="translate(-235.532 -420.137)" fill="#19bfbe"/>
        </g>
        <path id="Path_929" data-name="Path 929" d="M229.372,473.531c-.374,0-.746-.009-1.117-.022C228.63,473.522,229,473.531,229.372,473.531Z" transform="translate(-198.532 -411.854)" fill="#c42126"/>
        <g id="Group_395" data-name="Group 395">
            <path id="Path_918" data-name="Path 918" d="M249.291,6.041h11.058a30.668,30.668,0,0,0-16-5.611H243.4C246.193.782,247.478,2.852,249.291,6.041Z" transform="translate(-211.702 -0.374)" fill="#19bfbe"/>
            <path id="Path_920" data-name="Path 920" d="M301.284,92.223h17.894a30.857,30.857,0,0,0-3.661-5.611H299.886A49.509,49.509,0,0,1,301.284,92.223Z" transform="translate(-260.836 -75.334)" fill="#19bfbe"/>
            <path id="Path_922" data-name="Path 922" d="M338.278,178.412a30.715,30.715,0,0,0-1.023-5.61h-19.1c.192,1.837.318,3.717.38,5.61Z" transform="translate(-276.726 -150.302)" fill="#19bfbe"/>
            <path id="Path_924" data-name="Path 924" d="M340.294,264.6a30.648,30.648,0,0,0,1.056-5.61H322.091c-.066,1.895-.2,3.774-.392,5.61Z" transform="translate(-279.809 -225.265)" fill="#19bfbe"/>
            <path id="Path_931" data-name="Path 931" d="M100.092,6.041h25.575C123.854,2.852,121.549.782,118.751.43h-2.657A30.665,30.665,0,0,0,100.092,6.041Z" transform="translate(-87.057 -0.374)" fill="#19bfbe"/>
            <path id="Path_933" data-name="Path 933" d="M29.3,86.609a30.878,30.878,0,0,0-3.66,5.611H64.67a49.447,49.447,0,0,0-1.4-5.611Z" transform="translate(-22.297 -75.332)" fill="#19bfbe"/>
            <path id="Path_935" data-name="Path 935" d="M.978,178.412H44.417c-.062-1.894-.189-3.773-.38-5.61H2A30.676,30.676,0,0,0,.978,178.412Z" transform="translate(-0.849 -150.302)" fill="#19bfbe"/>
            <path id="Path_937" data-name="Path 937" d="M2.124,264.6H44.1c.2-1.836.326-3.716.392-5.61H1.068A30.685,30.685,0,0,0,2.124,264.6Z" transform="translate(-0.927 -225.265)" fill="#19bfbe"/>
        </g>
        <g id="Group_392" data-name="Group 392" transform="translate(3.42 44.944)">
            <path id="Path_939" data-name="Path 939" d="M26.254,345.166a30.892,30.892,0,0,0,3.711,5.611h33.8a48.919,48.919,0,0,0,1.415-5.611Z" transform="translate(-26.254 -345.166)" fill="#19bfbe"/>
            <path id="Path_940" data-name="Path 940" d="M118.072,436.84l.187.007c.371.013.743.022,1.117.022,3.136,0,5.694-2.1,7.675-5.51H101.793A30.676,30.676,0,0,0,118.072,436.84Z" transform="translate(-91.957 -420.136)" fill="#19bfbe"/>
        </g>
        <path id="Path_941" data-name="Path 941" d="M31.078.123A30.829,30.829,0,0,0,1.008,28.167h30.07V.123Z" transform="translate(-0.875 -0.107)" fill="#19bfbe"/>
        <g id="Group_393" data-name="Group 393" transform="translate(1.04 2.137)">
            <path id="Path_942" data-name="Path 942" d="M34.083,134.187l.47,1.447h1.522l-1.231.895.47,1.448-1.231-.9-1.23.9.469-1.448-1.231-.895h1.522Z" transform="translate(-28.95 -118.852)" fill="#efefef"/>
            <path id="Path_943" data-name="Path 943" d="M34.083,173.438l.47,1.448h1.522l-1.231.895.47,1.448-1.231-.9-1.23.9.469-1.448-1.231-.895h1.522Z" transform="translate(-28.95 -152.992)" fill="#efefef"/>
            <path id="Path_944" data-name="Path 944" d="M73.338,75.3l.47,1.447h1.522l-1.231.9.47,1.447-1.23-.894-1.231.894.47-1.447-1.232-.9h1.522Z" transform="translate(-63.093 -67.629)" fill="#efefef"/>
            <path id="Path_945" data-name="Path 945" d="M73.338,114.554l.47,1.447h1.522L74.1,116.9l.47,1.448-1.23-.894-1.231.894.47-1.448L71.345,116h1.522Z" transform="translate(-63.093 -101.775)" fill="#efefef"/>
            <path id="Path_946" data-name="Path 946" d="M73.338,153.812l.47,1.448h1.522l-1.231.893.47,1.448-1.23-.895-1.231.895.47-1.448-1.232-.893h1.522Z" transform="translate(-63.093 -135.921)" fill="#efefef"/>
            <path id="Path_947" data-name="Path 947" d="M9.223,166.562l-.47-1.448,1.231-.894H8.462l-.034-.106c-.167.517-.318,1.04-.457,1.568l.021-.016Z" transform="translate(-7.971 -144.883)" fill="#efefef"/>
            <path id="Path_948" data-name="Path 948" d="M37.225,98.715l1.23-.895,1.231.895-.47-1.448,1.231-.895H38.925l-.47-1.447-.47,1.447h-.561c-.1.158-.2.317-.306.477l.577.418Z" transform="translate(-33.323 -84.703)" fill="#efefef"/>
            <path id="Path_949" data-name="Path 949" d="M78.418,48.6l1.23.894-.47-1.447,1.23-.895H79.53q-1.12.837-2.159,1.772l-.186.57Z" transform="translate(-68.174 -43.15)" fill="#efefef"/>
            <path id="Path_950" data-name="Path 950" d="M116.452,28.567l1.231-.895,1.23.895-.47-1.448,1.23-.894h-1.522l-.064-.195c-.516.263-1.026.538-1.525.829l.357.26Z" transform="translate(-102.327 -24.779)" fill="#efefef"/>
            <path id="Path_951" data-name="Path 951" d="M112.6,55.671l.47,1.446h1.522l-1.231.895.47,1.448-1.23-.9-1.231.9.47-1.448-1.231-.895h1.522Z" transform="translate(-97.24 -50.559)" fill="#efefef"/>
            <path id="Path_952" data-name="Path 952" d="M112.6,94.929l.47,1.446h1.522l-1.231.895.47,1.448-1.23-.9-1.231.9.47-1.448-1.231-.895h1.522Z" transform="translate(-97.24 -84.706)" fill="#efefef"/>
            <path id="Path_953" data-name="Path 953" d="M112.6,134.187l.47,1.447h1.522l-1.231.895.47,1.448-1.23-.9-1.231.9.47-1.448-1.231-.895h1.522Z" transform="translate(-97.24 -118.852)" fill="#efefef"/>
            <path id="Path_954" data-name="Path 954" d="M112.6,173.438l.47,1.448h1.522l-1.231.895.47,1.448-1.23-.9-1.231.9.47-1.448-1.231-.895h1.522Z" transform="translate(-97.24 -152.992)" fill="#efefef"/>
            <path id="Path_955" data-name="Path 955" d="M151.854,36.038l.47,1.447h1.522l-1.23.9.469,1.447-1.23-.894-1.231.894.47-1.447-1.231-.9h1.522Z" transform="translate(-131.387 -33.483)" fill="#efefef"/>
            <path id="Path_956" data-name="Path 956" d="M151.854,75.3l.47,1.447h1.522l-1.23.9.469,1.447-1.23-.894-1.231.894.47-1.447-1.231-.9h1.522Z" transform="translate(-131.387 -67.629)" fill="#efefef"/>
            <path id="Path_957" data-name="Path 957" d="M151.854,114.554l.47,1.447h1.522l-1.23.894.469,1.448-1.23-.894-1.231.894.47-1.448L149.862,116h1.522Z" transform="translate(-131.387 -101.775)" fill="#efefef"/>
            <path id="Path_958" data-name="Path 958" d="M151.854,153.812l.47,1.448h1.522l-1.23.893.469,1.448-1.23-.895-1.231.895.47-1.448-1.231-.893h1.522Z" transform="translate(-131.387 -135.921)" fill="#efefef"/>
            <path id="Path_959" data-name="Path 959" d="M191.112,16.413l.47,1.447H193.1l-1.231.894.47,1.448-1.23-.9-1.231.9.47-1.448-1.231-.894h1.522Z" transform="translate(-165.533 -16.413)" fill="#efefef"/>
            <path id="Path_960" data-name="Path 960" d="M191.112,55.671l.47,1.446H193.1l-1.231.895.47,1.448-1.23-.9-1.231.9.47-1.448-1.231-.895h1.522Z" transform="translate(-165.533 -50.559)" fill="#efefef"/>
            <path id="Path_961" data-name="Path 961" d="M191.112,94.929l.47,1.446H193.1l-1.231.895.47,1.448-1.23-.9-1.231.9.47-1.448-1.231-.895h1.522Z" transform="translate(-165.533 -84.706)" fill="#efefef"/>
            <path id="Path_962" data-name="Path 962" d="M191.112,134.187l.47,1.447H193.1l-1.231.895.47,1.448-1.23-.9-1.231.9.47-1.448-1.231-.895h1.522Z" transform="translate(-165.533 -118.852)" fill="#efefef"/>
            <path id="Path_963" data-name="Path 963" d="M191.112,173.438l.47,1.448H193.1l-1.231.895.47,1.448-1.23-.9-1.231.9.47-1.448-1.231-.895h1.522Z" transform="translate(-165.533 -152.992)" fill="#efefef"/>
        </g>
    </g>
</svg>
