<svg xmlns="http://www.w3.org/2000/svg" width="61.331" height="61.341" viewBox="0 0 61.331 61.341">
    <g id="world" transform="translate(-0.004)">
        <g id="Group_389" data-name="Group 389" transform="translate(0.004)">
            <path id="Path_912" data-name="Path 912" d="M42.689,10.588l-.918.291-4.887.435-1.38,2.2-1-.318L30.612,9.693,30.048,7.87l-.756-1.945L26.848,3.732l-2.884-.564L23.9,4.488l2.825,2.757,1.382,1.628-1.554.812-1.265-.373-1.9-.791.064-1.529L20.967,5.97l-.826,3.595-2.507.568.248,2.005,3.267.629.564-3.2,2.7.4,1.254.734h2.011l1.377,2.757,3.649,3.7-.267,1.439-2.942-.375-5.084,2.568-3.661,4.391-.476,1.945H18.954l-2.448-1.129-2.378,1.129.592,2.509,1.035-1.193,1.82-.057-.127,2.253,1.507.441,1.505,1.691,2.458-.691,2.808.443,3.261.877,1.628.191,2.761,3.134L38.7,39.854l-3.446,6.584L31.62,48.129l-1.38,3.763-5.264,3.515-.56,2.027A30.63,30.63,0,0,0,42.689,10.588Z" transform="translate(13.449 3.018)" fill="#212e84"/>
            <path id="Path_913" data-name="Path 913" d="M34.195,39.524l-2.234-4.141,2.05-4.272-2.05-.613-2.3-2.312-5.1-1.144L22.866,23.5v2.1H22.12l-4.4-5.959V14.749L14.5,9.51l-5.116.912H5.942L4.208,9.285,6.42,7.532l-2.206.51A30.628,30.628,0,0,0,30.669,54.166a32.108,32.108,0,0,0,3.848-.267l-.32-3.716S35.6,44.665,35.6,44.478,34.195,39.524,34.195,39.524Z" transform="translate(-0.004 7.174)" fill="#212e84"/>
            <path id="Path_914" data-name="Path 914" d="M7.977,9.89l5.448-.76,2.511-1.377,2.825.814,4.514-.25,1.546-2.431,2.255.371,5.477-.514,1.509-1.664,2.128-1.421,3.011.453,1.1-.166a30.569,30.569,0,0,0-36.7,8.2h.016ZM28.542,3.05l3.132-1.724,2.011,1.162L30.773,4.7l-2.78.279-1.252-.812ZM19.265,3.3l1.382.576,1.81-.576.986,1.708-4.178,1.1L17.256,4.932S19.22,3.667,19.265,3.3Z" transform="translate(3.417)" fill="#212e84"/>
        </g>
    </g>
</svg>
