<svg xmlns="http://www.w3.org/2000/svg" width="77.001" height="55.9" viewBox="0 0 77.001 55.9">
    <g id="Graduate" transform="translate(-0.129 -6.344)">
        <path id="Path_964" data-name="Path 964" d="M46.928,36.226a4.015,4.015,0,0,0-.782-6.918V23.79L42.92,25.161v4.147a4.015,4.015,0,0,0-.782,6.92A4.013,4.013,0,0,0,40.5,39.454v4.031A1.613,1.613,0,0,0,42.113,45.1h4.839a1.613,1.613,0,0,0,1.613-1.613V39.452A4.013,4.013,0,0,0,46.928,36.226Z" transform="translate(24.746 10.694)" fill="#e9a870"/>
        <path id="Path_965" data-name="Path 965" d="M57.389,25.91V37.846a8,8,0,0,1-3.871,6.9,40.3,40.3,0,0,1-40.647,0A8,8,0,0,1,9,37.846V25.91l19.791,8.371a11.371,11.371,0,0,0,8.807,0Z" transform="translate(5.438 11.994)" fill="#e9a870"/>
        <path id="Path_966" data-name="Path 966" d="M74.176,20.688l-32.4-13.71a8.112,8.112,0,0,0-6.291,0l-32.4,13.71a4.839,4.839,0,0,0,0,8.913l32.4,13.71a8.1,8.1,0,0,0,6.291,0l32.4-13.71a4.839,4.839,0,0,0,0-8.913Z" transform="translate(0 0)" fill="#e9a870"/>
    </g>
</svg>
