<svg xmlns="http://www.w3.org/2000/svg" width="31.278" height="31.278" viewBox="0 0 31.278 31.278">
    <g id="Icon" transform="translate(-2.25 -2.25)">
        <path id="Path_1000" data-name="Path 1000" d="M26.695,30.881a2.021,2.021,0,0,1-.273,1.813,1.973,1.973,0,0,1-1.6.834H10.976a1.973,1.973,0,0,1-1.6-.834A2.021,2.021,0,0,1,9.1,30.881l1.059-3.208a2.021,2.021,0,0,1,1.909-1.363H23.743a2.021,2.021,0,0,1,1.909,1.363ZM33.528,8.265V9.356a10.811,10.811,0,0,1-7.394,10.266l-2.534.834A7.459,7.459,0,0,0,22.316,23.9H13.462a7.459,7.459,0,0,0-1.283-3.449l-2.534-.834A10.811,10.811,0,0,1,2.25,9.356V8.265A2.823,2.823,0,0,1,5.057,5.458H8.666v-.4A2.823,2.823,0,0,1,11.473,2.25H24.3a2.823,2.823,0,0,1,2.807,2.807v.4h3.609a2.823,2.823,0,0,1,2.807,2.807Zm-23.9,8.742a9.271,9.271,0,0,1-.962-4.122V7.864H5.057a.4.4,0,0,0-.4.4V9.356a8.389,8.389,0,0,0,4.972,7.651ZM31.122,8.265a.4.4,0,0,0-.4-.4H27.112v5.02a9.271,9.271,0,0,1-.962,4.122,8.389,8.389,0,0,0,4.972-7.651Z" transform="translate(0)" fill="#fff"/>
    </g>
</svg>
