<svg xmlns="http://www.w3.org/2000/svg" width="45.849" height="45.849" viewBox="0 0 45.849 45.849">
    <g id="Group_66" data-name="Group 66" transform="translate(0 0)">
        <g id="Group_65" data-name="Group 65">
            <path id="Path_193" data-name="Path 193" d="M754.2,397.9A3.893,3.893,0,1,0,758.1,401.8,3.9,3.9,0,0,0,754.2,397.9Z" transform="translate(-731.395 -378.859)" fill="#212e84"/>
            <path id="Path_194" data-name="Path 194" d="M761.874,386.467A22.924,22.924,0,1,0,784.8,409.392,22.925,22.925,0,0,0,761.874,386.467Zm12.2,30.152a4.993,4.993,0,0,1-4.989,4.987H754.434a4.993,4.993,0,0,1-4.987-4.987V402.188a4.994,4.994,0,0,1,4.987-4.989h14.654a5,5,0,0,1,4.989,4.989Z" transform="translate(-738.952 -386.467)" fill="#212e84"/>
        </g>
        <path id="Path_195" data-name="Path 195" d="M762.7,394.8H749.915a2.766,2.766,0,0,0-2.764,2.764v12.589a2.766,2.766,0,0,0,2.764,2.763H762.7a2.765,2.765,0,0,0,2.763-2.763V397.565A2.766,2.766,0,0,0,762.7,394.8Zm-6.393,15.467a6.409,6.409,0,1,1,6.409-6.408A6.416,6.416,0,0,1,756.306,410.268Zm6.5-11.082a1.455,1.455,0,1,1,1.455-1.452A1.451,1.451,0,0,1,762.8,399.185Z" transform="translate(-733.498 -380.923)" fill="#212e84"/>
    </g>
</svg>
