<svg xmlns="http://www.w3.org/2000/svg" width="43.679" height="43.678" viewBox="0 0 43.679 43.678">
    <g id="Group_409" data-name="Group 409" transform="translate(0 -0.004)">
        <path id="Path_890" data-name="Path 890" d="M11.647,67.644V64.732A.728.728,0,0,0,10.919,64H.728A.728.728,0,0,0,0,64.732v2.912Zm0,0" transform="translate(0 -58.176)" fill="#e16363"/>
        <path id="Path_891" data-name="Path 891" d="M0,120v24.023H11.647V120Zm8.736,9.464H2.912a.728.728,0,0,1-.728-.728v-5.824a.728.728,0,0,1,.728-.728H8.736a.728.728,0,0,1,.728.728v5.824A.728.728,0,0,1,8.736,129.468Zm0,0" transform="translate(0 -109.081)" fill="#e16363"/>
        <path id="Path_892" data-name="Path 892" d="M0,432v3.64a.728.728,0,0,0,.728.728H10.919a.728.728,0,0,0,.728-.728V432Zm0,0" transform="translate(0 -392.69)" fill="#e16363"/>
        <path id="Path_893" data-name="Path 893" d="M0,400H11.647v1.456H0Zm0,0" transform="translate(0 -363.602)" fill="#e16363"/>
        <path id="Path_894" data-name="Path 894" d="M144,400h9.464v1.456H144Zm0,0" transform="translate(-130.897 -363.602)" fill="#e16363"/>
        <path id="Path_895" data-name="Path 895" d="M153.464,2.916V.732A.728.728,0,0,0,152.736,0h-8.008A.728.728,0,0,0,144,.732V2.916Zm0,0" transform="translate(-130.897)" fill="#e16363"/>
        <path id="Path_896" data-name="Path 896" d="M144,88h9.464v26.935H144Zm0,0" transform="translate(-130.897 -79.992)" fill="#e16363"/>
        <path id="Path_897" data-name="Path 897" d="M144,432v3.64a.728.728,0,0,0,.728.728h8.008a.728.728,0,0,0,.728-.728V432Zm0,0" transform="translate(-130.897 -392.69)" fill="#e16363"/>
        <path id="Path_898" data-name="Path 898" d="M144,48h9.464v2.184H144Zm0,0" transform="translate(-130.897 -43.632)" fill="#e16363"/>
        <path id="Path_899" data-name="Path 899" d="M263.809,132.827l.39,1.5,12.328-3.288-.39-1.5Zm0,0" transform="translate(-239.804 -117.748)" fill="#e16363"/>
        <path id="Path_900" data-name="Path 900" d="M322.859,359.214l12.328-3.288-.781-2.993-12.329,3.288Zm0,0" transform="translate(-292.77 -320.814)" fill="#e16363"/>
        <path id="Path_901" data-name="Path 901" d="M288.635,177.468l-4.178-16.015-12.329,3.288,4.178,16.015Zm0,0" transform="translate(-247.366 -146.758)" fill="#e16363"/>
        <path id="Path_902" data-name="Path 902" d="M249.061,71.849l12.328-3.287-1.045-4.009a.744.744,0,0,0-.9-.524l-10.919,2.912a.733.733,0,0,0-.517.888Zm0,0" transform="translate(-225.423 -58.179)" fill="#e16363"/>
        <path id="Path_903" data-name="Path 903" d="M347.025,401.3,334.7,404.589l.868,3.328a.73.73,0,0,0,.342.444.7.7,0,0,0,.364.1.847.847,0,0,0,.189-.022l10.919-2.912a.734.734,0,0,0,.517-.888Zm0,0" transform="translate(-304.24 -364.781)" fill="#e16363"/>
    </g>
</svg>
