<svg xmlns="http://www.w3.org/2000/svg" width="45.778" height="41.698" viewBox="0 0 45.778 41.698">
    <g id="location" transform="translate(-1.278 -2.913)">
        <path id="Path_877" data-name="Path 877" d="M24,3.913A12.111,12.111,0,0,0,11.889,16.024C11.889,24.217,24,37.753,24,37.753S36.111,24.217,36.111,16.024A12.111,12.111,0,0,0,24,3.913Zm0,19.211a7.175,7.175,0,1,1,7.175-7.175A7.175,7.175,0,0,1,24,23.124Z" fill="#fff" stroke="#fff" stroke-miterlimit="10" stroke-width="2"/>
        <path id="Path_878" data-name="Path 878" d="M32.291,34.323a59.061,59.061,0,0,1,7.321,1.061c3.98.872,6.444,2.079,6.444,3.412,0,2.659-9.8,4.815-21.889,4.815S2.278,41.455,2.278,38.8c0-1.279,2.268-2.442,5.968-3.3a56.873,56.873,0,0,1,7.638-1.154" fill="none" stroke="#fff" stroke-miterlimit="10" stroke-width="2"/>
    </g>
</svg>
