<svg xmlns="http://www.w3.org/2000/svg" width="30.415" height="30.42" viewBox="0 0 30.415 30.42">
    <path id="phone-flip" d="M28.092,2.305l-1.33-1.153a3.923,3.923,0,0,0-5.55,0c-.038.038-2.382,3.092-2.382,3.092a3.935,3.935,0,0,0,0,5.423l1.47,1.85a16.212,16.212,0,0,1-8.781,8.806l-1.85-1.483a3.91,3.91,0,0,0-5.423,0s-3.054,2.344-3.092,2.382a3.905,3.905,0,0,0-.063,5.487l1.267,1.457a7.764,7.764,0,0,0,5.55,2.255c9.681,0,22.5-12.836,22.5-22.5a7.786,7.786,0,0,0-2.319-5.6ZM7.908,27.875A5.157,5.157,0,0,1,4.22,26.418L2.953,24.961A1.394,1.394,0,0,1,2.9,23.048s3.028-2.331,3.066-2.369a1.432,1.432,0,0,1,1.964,0c.038.038,2.585,2.078,2.585,2.078a1.258,1.258,0,0,0,1.242.19A18.988,18.988,0,0,0,22.935,11.783a1.279,1.279,0,0,0-.19-1.267s-2.04-2.56-2.065-2.585a1.384,1.384,0,0,1,0-1.964c.038-.038,2.369-3.066,2.369-3.066a1.416,1.416,0,0,1,1.977.1l1.33,1.153a5.256,5.256,0,0,1,1.521,3.751c0,8.819-12.379,19.969-19.969,19.969Z" transform="translate(0.004 -0.002)" fill="#fff"/>
</svg>
