<svg xmlns="http://www.w3.org/2000/svg" width="37.792" height="37.792" viewBox="0 0 37.792 37.792">
    <g id="Group_402" data-name="Group 402" transform="translate(-0.001 0)">
        <path id="Path_983" data-name="Path 983" d="M149.692,16.977v4.429a.738.738,0,0,0,.216.522l1.476,1.476a.738.738,0,0,0,.522.216h4.429a.738.738,0,0,0,.522-.216l1.476-1.476a.738.738,0,0,0,.216-.522V16.977c0-1.13.075-1.373,2.032-3.939a8.046,8.046,0,0,0,1.659-4.918,8.119,8.119,0,0,0-16.239,0,8.046,8.046,0,0,0,1.659,4.918C149.616,15.6,149.692,15.847,149.692,16.977Zm7.381.738v1.476h-5.9V17.715Zm-1.044,4.429h-3.817L151.168,21.1v-.432h5.9V21.1ZM154.12,1.476a6.651,6.651,0,0,1,6.643,6.643,6.582,6.582,0,0,1-1.357,4.023c-1.656,2.172-2.174,2.943-2.3,4.1h-2.249V9.9l1.26-1.26A.738.738,0,1,0,155.074,7.6l-.954.954-.954-.954a.738.738,0,0,0-1.044,1.044l1.26,1.26v6.337h-2.249c-.126-1.153-.644-1.924-2.3-4.1a6.582,6.582,0,0,1-1.357-4.023A6.651,6.651,0,0,1,154.12,1.476Z" transform="translate(-135.223)" fill="#fff"/>
        <path id="Path_984" data-name="Path 984" d="M81.739,101.476h1.476a.738.738,0,0,0,0-1.476H81.739a.738.738,0,0,0,0,1.476Z" transform="translate(-75.021 -92.619)" fill="#fff"/>
        <path id="Path_985" data-name="Path 985" d="M103.474,18.876l1.278.738a.738.738,0,1,0,.738-1.278l-1.278-.738a.738.738,0,0,0-.738,1.278Z" transform="translate(-95.493 -16.207)" fill="#fff"/>
        <path id="Path_986" data-name="Path 986" d="M104.753,172.6l-1.278.738a.738.738,0,1,0,.738,1.278l1.278-.738a.738.738,0,1,0-.738-1.278Z" transform="translate(-95.494 -159.766)" fill="#fff"/>
        <path id="Path_987" data-name="Path 987" d="M391,100.738a.738.738,0,0,0,.738.738h1.476a.738.738,0,1,0,0-1.476h-1.476A.738.738,0,0,0,391,100.738Z" transform="translate(-362.14 -92.619)" fill="#fff"/>
        <path id="Path_988" data-name="Path 988" d="M372.312,19.713a.735.735,0,0,0,.368-.1l1.278-.738a.738.738,0,0,0-.738-1.278l-1.278.738a.738.738,0,0,0,.37,1.377Z" transform="translate(-344.146 -16.207)" fill="#fff"/>
        <path id="Path_989" data-name="Path 989" d="M371.942,173.876l1.278.738a.738.738,0,0,0,.738-1.278l-1.278-.738a.738.738,0,0,0-.738,1.278Z" transform="translate(-344.146 -159.766)" fill="#fff"/>
        <path id="Path_990" data-name="Path 990" d="M37.054,347.925v-2.27a.738.738,0,0,0-.738-.738,14.028,14.028,0,0,1-6.461-1.605c-.478-.22-.93-.427-1.381-.6a8.02,8.02,0,0,0-5.87-.242A8.181,8.181,0,0,0,18.9,345.6a8.181,8.181,0,0,0-3.707-3.126,8.02,8.02,0,0,0-5.87.242c-.452.173-.9.38-1.381.6a14.028,14.028,0,0,1-6.461,1.605.738.738,0,0,0-.738.738v2.27a.738.738,0,0,0-.738.738v3.322a.738.738,0,0,0,.738.738H15.922a3.321,3.321,0,0,0,5.95,0H37.054a.738.738,0,0,0,.738-.738v-3.322a.738.738,0,0,0-.738-.738Zm-9.108-3.835c.407.156.837.353,1.292.563a15.719,15.719,0,0,0,6.34,1.724v1.548H21.417a3.888,3.888,0,0,0-1.782.389v-1.129C21.651,343.735,24.372,342.723,27.947,344.09Zm-19.392.563c.455-.209.885-.407,1.292-.563,3.575-1.367,6.3-.355,8.312,3.095v1.129a3.888,3.888,0,0,0-1.782-.389H2.215v-1.548A15.718,15.718,0,0,0,8.555,344.653Zm27.761,6.593H21.373a.738.738,0,0,0-.707.527,1.846,1.846,0,0,1-3.538,0,.738.738,0,0,0-.707-.527H1.477V349.4h14.9a1.963,1.963,0,0,1,1.881.992.738.738,0,0,0,1.278,0,1.963,1.963,0,0,1,1.881-.992h14.9v1.845Z" transform="translate(0 -316.776)" fill="#fff"/>
    </g>
</svg>
