<svg xmlns="http://www.w3.org/2000/svg" width="31.94" height="50.821" viewBox="0 0 31.94 50.821">
    <path id="Path_1001" data-name="Path 1001" d="M-4.673-32.328l-.472-8.182a64.7,64.7,0,0,1-10.148-3.855,10.7,10.7,0,0,1-4.563-3.973,12.3,12.3,0,0,1-1.259-6.018,11.928,11.928,0,0,1,1.691-6.8,9.687,9.687,0,0,1,5.389-3.619A35.069,35.069,0,0,1-4.044-65.92a51.262,51.262,0,0,1,14.869,2.36L9.251-55.536A52.565,52.565,0,0,0-2.628-57.109a35.442,35.442,0,0,0-5.979.472v6.294l7.316,2.36a15.272,15.272,0,0,1,4.13,1.731,2.243,2.243,0,0,1,.983,2.045L2.8-32.328ZM5.475-21.472q0,3.54-1.3,4.956T-.976-15.1q-3.7,0-5-1.416t-1.3-4.956q0-3.54,1.3-5t5-1.455q3.855,0,5.153,1.416T5.475-21.472Z" transform="translate(21.115 65.92)" fill="#84bed6"/>
</svg>
