<svg xmlns="http://www.w3.org/2000/svg" width="66.229" height="68.049" viewBox="0 0 66.229 68.049">
    <path id="Path_967" data-name="Path 967" d="M29.357,61.141,39.65,79.327a1.842,1.842,0,0,1-.694,2.5l-3.5,1.982a1.842,1.842,0,0,1-2.5-.694L22.658,64.932a1.843,1.843,0,0,1,.694-2.5l3.5-1.981a1.842,1.842,0,0,1,2.5.694Zm11.471-3.779-8.286,4.8L39.806,75l1.5-.866,16.425,4.4a8.3,8.3,0,0,0,6.724-.948L87.1,63.643c3.225-1.985,1.8-10.676-7.9-5.027L66.722,65.883a8,8,0,0,1-2.131.869,4.613,4.613,0,0,1-4.857,2.074,70.415,70.415,0,0,1-8.383-2.214,1.133,1.133,0,0,1,.585-2.188,68.652,68.652,0,0,0,8.126,2.161,3.271,3.271,0,0,0,3.679-2.5,3.605,3.605,0,0,0-2.493-4.319c-4.971-.9-9.845-2.975-12.83-3.943C45.741,54.95,43.264,55.95,40.828,57.362ZM78.006,16.213,79.6,20.407a.326.326,0,0,0,.294.214l4.481.218a.332.332,0,0,1,.192.59l-3.5,2.811a.325.325,0,0,0-.112.346l1.177,4.329a.332.332,0,0,1-.5.365l-3.754-2.457a.326.326,0,0,0-.363,0L73.76,29.279a.332.332,0,0,1-.5-.364l1.177-4.329a.325.325,0,0,0-.112-.346l-3.5-2.811a.332.332,0,0,1,.192-.59L75.5,20.62a.326.326,0,0,0,.294-.214l1.592-4.194A.332.332,0,0,1,78.006,16.213Zm-16.738,0,1.592,4.194a.326.326,0,0,0,.294.214l4.481.218a.332.332,0,0,1,.192.59l-3.5,2.811a.326.326,0,0,0-.112.346L65.4,28.914a.332.332,0,0,1-.5.365L61.14,26.822a.326.326,0,0,0-.363,0l-3.753,2.457a.332.332,0,0,1-.5-.364L57.7,24.585a.326.326,0,0,0-.112-.346l-3.5-2.811a.332.332,0,0,1,.192-.59l4.481-.218a.326.326,0,0,0,.294-.214l1.592-4.194A.332.332,0,0,1,61.269,16.213Zm-16.737,0,1.592,4.194a.326.326,0,0,0,.294.214l4.481.218a.332.332,0,0,1,.192.59l-3.5,2.811a.325.325,0,0,0-.112.346l1.177,4.329a.332.332,0,0,1-.5.365L44.4,26.822a.326.326,0,0,0-.363,0l-3.753,2.457a.332.332,0,0,1-.5-.364l1.177-4.329a.326.326,0,0,0-.112-.346l-3.5-2.811a.332.332,0,0,1,.192-.59l4.481-.218a.326.326,0,0,0,.294-.214l1.592-4.194A.333.333,0,0,1,44.531,16.213ZM60.959,31.944a5.267,5.267,0,1,1-5.267,5.267A5.267,5.267,0,0,1,60.959,31.944ZM51.422,53.193a.706.706,0,0,1-.7-.842,10.419,10.419,0,0,1,20.465,0,.706.706,0,0,1-.7.842Zm-7.2-22.032a5.267,5.267,0,1,1-5.267,5.267A5.267,5.267,0,0,1,44.221,31.16ZM34.685,52.409H48.416a12.613,12.613,0,0,1,2.98-6.431,10.418,10.418,0,0,0-17.408,5.589A.706.706,0,0,0,34.685,52.409ZM77.7,31.16a5.267,5.267,0,1,1-5.267,5.267A5.267,5.267,0,0,1,77.7,31.16ZM73.5,52.409H87.232a.706.706,0,0,0,.7-.842,10.418,10.418,0,0,0-17.408-5.589A12.612,12.612,0,0,1,73.5,52.409ZM26.791,63.5a1.25,1.25,0,1,0,1.418,1.056A1.25,1.25,0,0,0,26.791,63.5Z" transform="translate(-22.421 -16)" fill="#e16363" fill-rule="evenodd"/>
</svg>
