<svg id="Group_408" data-name="Group 408" xmlns="http://www.w3.org/2000/svg" width="49.507" height="49.507" viewBox="0 0 49.507 49.507">
    <path id="Path_909" data-name="Path 909" d="M44.173,0H5.334A5.34,5.34,0,0,0,0,5.334V34.852a5.34,5.34,0,0,0,5.334,5.334H28.17V34.075a9.012,9.012,0,1,1,18.023,0v5.712a5.342,5.342,0,0,0,3.313-4.935V5.334A5.34,5.34,0,0,0,44.173,0ZM13.879,6.317h21.75a1.45,1.45,0,0,1,0,2.9H13.879a1.45,1.45,0,0,1,0-2.9Zm9.527,26.1H7.665a1.45,1.45,0,1,1,0-2.9H23.406a1.45,1.45,0,1,1,0,2.9ZM41.842,21.646H7.665a1.45,1.45,0,1,1,0-2.9H41.842a1.45,1.45,0,1,1,0,2.9Zm0-6.214H7.665a1.45,1.45,0,0,1,0-2.9H41.842a1.45,1.45,0,1,1,0,2.9Z" fill="#f0c24b"/>
    <path id="Path_910" data-name="Path 910" d="M327.445,289.2a6.111,6.111,0,1,0,6.111,6.111A6.118,6.118,0,0,0,327.445,289.2Z" transform="translate(-290.263 -261.236)" fill="#f0c24b"/>
    <path id="Path_911" data-name="Path 911" d="M321.334,420.832V428.2a1.45,1.45,0,0,0,2.255,1.207l3.856-2.571L331.3,429.4a1.45,1.45,0,0,0,2.255-1.207v-7.365a8.994,8.994,0,0,1-12.222,0Z" transform="translate(-290.263 -380.14)" fill="#f0c24b"/>
</svg>
