<svg xmlns="http://www.w3.org/2000/svg" width="38.024" height="45.274" viewBox="0 0 38.024 45.274">
    <g id="Group_401" data-name="Group 401" transform="translate(-40.994)">
        <path id="Path_982" data-name="Path 982" d="M79.018,29.181a4.429,4.429,0,0,0-3.537-4.332V20.073a1.326,1.326,0,0,0-1.792-1.242l-2.532.949a15.464,15.464,0,0,0-5.9-3.829,8.843,8.843,0,1,0-10.507,0,15.465,15.465,0,0,0-5.9,3.829l-2.532-.949a1.326,1.326,0,0,0-1.792,1.242v4.776a4.422,4.422,0,0,0,0,8.665v5.129a1.326,1.326,0,0,0,.861,1.242L59.54,45.19a1.341,1.341,0,0,0,.931,0L74.62,39.885a1.326,1.326,0,0,0,.861-1.242V33.513A4.429,4.429,0,0,0,79.018,29.181ZM53.816,8.843a6.19,6.19,0,1,1,6.19,6.19A6.2,6.2,0,0,1,53.816,8.843Zm6.19,8.843a12.8,12.8,0,0,1,8.392,3.13l-8.392,3.147-8.392-3.147a12.8,12.8,0,0,1,8.392-3.13Zm-16.359,11.5a1.771,1.771,0,0,1,1.769-1.769H46.3v3.537h-.884A1.771,1.771,0,0,1,43.647,29.181Zm3.537,4.377a2.214,2.214,0,0,0,1.769-2.166V26.97A2.214,2.214,0,0,0,47.184,24.8V21.987l11.5,4.311V42.034l-11.5-4.311Zm14.148,8.476V26.3l11.5-4.311V24.8a2.214,2.214,0,0,0-1.769,2.166v4.421a2.214,2.214,0,0,0,1.769,2.166v4.166ZM74.6,30.949h-.884V27.412H74.6a1.769,1.769,0,1,1,0,3.537Z" fill="#fff"/>
    </g>
</svg>
