<svg xmlns="http://www.w3.org/2000/svg" width="25.667" height="34.001" viewBox="0 0 25.667 34.001">
    <path id="Path_999" data-name="Path 999" d="M88.373,6.651c0-.005,0-.01,0-.015L86.679,1.172A1.66,1.66,0,0,0,84.194.266h0l-4.8,3.1-.017.013a.992.992,0,0,0-.379.485L76.507,10.7l-1.05-2.889h0L74.093,4.065h0l-.908-2.5A2.326,2.326,0,0,0,70.206.174l-5.928,2.16a2.328,2.328,0,0,0-1.389,2.983l3.679,10.121a2.33,2.33,0,0,0-1.824,2.272v11.3A4.989,4.989,0,0,0,69.724,34H82.28a4.989,4.989,0,0,0,4.981-4.987v-11.3a2.33,2.33,0,0,0-1.871-2.282l2.965-8.156a1,1,0,0,0,.019-.621ZM84.905,2.18l.968,3.126-1.858-.677h0l-1.857-.677Zm-4.38,3.3,1.872.682-3.352,9.221h-2.12ZM64.76,4.635a.333.333,0,0,1,.2-.426l5.928-2.16a.332.332,0,0,1,.426.2L71.88,3.81l-2.028.739a1,1,0,1,0,.681,1.874l2.028-.739.681,1.874L69.967,8.752a1,1,0,1,0,.681,1.875l3.276-1.194.681,1.874-2.028.739a1,1,0,1,0,.681,1.875l2.028-.739.159.438-.641,1.764H68.667ZM85.268,29.014a2.994,2.994,0,0,1-2.988,2.992H69.724a2.994,2.994,0,0,1-2.988-2.992v-11.3a.333.333,0,0,1,.332-.332H84.936a.333.333,0,0,1,.332.332ZM83.286,15.384h-2.12l3.1-8.539,1.872.682Z" transform="translate(-62.747 0)" fill="#fff"/>
</svg>
