<svg xmlns="http://www.w3.org/2000/svg" width="74.927" height="67.186" viewBox="0 0 74.927 67.186">
    <g id="Group_371" data-name="Group 371" transform="translate(0 0)">
        <path id="Path_876" data-name="Path 876" d="M70.763,54.048h-.1V50.866h1.952a1.923,1.923,0,0,0,1.921-1.921V45.212a1.923,1.923,0,0,0-1.921-1.921H58.834a1.923,1.923,0,0,0-1.921,1.921V48.67H54.961a1.923,1.923,0,0,0-1.921,1.921v3.457h-1v-8.68A6.26,6.26,0,0,0,54.631,40.3V32.715a6.271,6.271,0,0,0-6.264-6.264H46.841a1.1,1.1,0,0,0,0,2.2h1.526a4.072,4.072,0,0,1,4.068,4.068c-.117,7.264.281,7.919-.4,9.333A4.078,4.078,0,0,1,48.2,44.363c-24.145.122-22.439-.014-23.109-.278a4.069,4.069,0,0,1-2.593-3.79V32.715a4.072,4.072,0,0,1,4.068-4.068H42.448a1.1,1.1,0,0,0,0-2.2H26.56A6.271,6.271,0,0,0,20.3,32.715V40.3a6.26,6.26,0,0,0,2.593,5.072v8.68H11.88a1.1,1.1,0,0,0,0,2.2c3.658,0,55.618,0,58.883,0a1.97,1.97,0,0,1,1.968,1.968v.1a1.969,1.969,0,0,1-1.968,1.967H4.164A1.969,1.969,0,0,1,2.2,58.313v-.1a1.97,1.97,0,0,1,1.968-1.968H7.487a1.1,1.1,0,1,0,0-2.2H4.164A4.17,4.17,0,0,0,0,58.213v.1a4.168,4.168,0,0,0,4.164,4.163h.1V91.989A1.65,1.65,0,0,0,5.91,93.636H8.652A1.649,1.649,0,0,0,10.3,91.989V62.477H22.89v1.155a4.731,4.731,0,0,0,0,9.458v18.9a1.65,1.65,0,0,0,1.647,1.647h2.744a1.65,1.65,0,0,0,1.647-1.647v-18.9H46v18.9a1.65,1.65,0,0,0,1.647,1.647H50.39a1.65,1.65,0,0,0,1.647-1.647v-9.9a1.1,1.1,0,1,0-2.2,0V91.44H48.2V73.091h1.646v4.6a1.1,1.1,0,0,0,2.2,0V73.09a4.731,4.731,0,0,0,0-9.458V62.476h12.59V91.989a1.649,1.649,0,0,0,1.647,1.647h2.743a1.65,1.65,0,0,0,1.647-1.647V62.477h.1a4.168,4.168,0,0,0,4.164-4.163v-.1A4.17,4.17,0,0,0,70.763,54.048Zm-44.031,0H25.086V46.384a6.68,6.68,0,0,0,1.646.176v7.488Zm19.267,0H28.928V46.56H46Zm3.842,0H48.2V46.56a6.06,6.06,0,0,0,1.646-.176Zm9.268-8.561H72.341V48.67H59.109Zm9.359,8.561H55.236V50.866H68.468ZM8.1,91.44H6.459V62.477H8.1V91.44ZM48.2,62.477h1.646v1.154H48.2Zm-19.267,0H46v1.154H28.928Zm-3.842,0h1.646v1.154H25.086ZM26.732,91.44H25.086V73.091h1.646V91.44Zm27.7-23.08A2.536,2.536,0,0,1,51.9,70.895c-.178,0-28.845,0-29.009,0a2.534,2.534,0,0,1,.139-5.065c.178,0,28.845,0,29.009,0A2.538,2.538,0,0,1,54.432,68.36ZM68.468,91.44H66.824V62.477h1.644Z" transform="translate(0 -26.451)" fill="#19bfbe"/>
    </g>
</svg>
