<svg xmlns="http://www.w3.org/2000/svg" width="57.886" height="57.887" viewBox="0 0 57.886 57.887">
    <g id="Group_396" data-name="Group 396" transform="translate(-99.97 -53.73)">
        <path id="Path_968" data-name="Path 968" d="M169.037,314.148a1.467,1.467,0,0,1-1.467-1.467V302.217a1.467,1.467,0,0,1,2.934,0v10.464A1.467,1.467,0,0,1,169.037,314.148Z" transform="translate(-60.989 -222.863)" fill="#212e84"/>
        <path id="Path_969" data-name="Path 969" d="M184.7,67.92a7.095,7.095,0,1,1,7.095-7.095A7.095,7.095,0,0,1,184.7,67.92Zm0-11.256a4.161,4.161,0,1,0,4.161,4.161A4.161,4.161,0,0,0,184.7,56.664Z" transform="translate(-70.047)" fill="#212e84"/>
        <path id="Path_970" data-name="Path 970" d="M473.148,201.548a1.467,1.467,0,0,1-1.094-2.445l7.97-8.934a1.468,1.468,0,0,1,2.19,1.956l-7.97,8.93A1.467,1.467,0,0,1,473.148,201.548Z" transform="translate(-335.359 -122.654)" fill="#212e84"/>
        <path id="Path_971" data-name="Path 971" d="M367.874,92.447H341.555a1.467,1.467,0,1,1,0-2.934h26.319a1.467,1.467,0,0,0,1.467-1.467V58.471A1.467,1.467,0,0,0,367.874,57H339.1a1.467,1.467,0,1,1,0-2.934h28.777a4.4,4.4,0,0,1,4.4,4.4V88.046A4.4,4.4,0,0,1,367.874,92.447Z" transform="translate(-214.418 -0.307)" fill="#212e84"/>
        <path id="Path_972" data-name="Path 972" d="M175.647,431.016h-6.61a1.467,1.467,0,0,1-1.467-1.467V409.217a1.467,1.467,0,1,1,2.934,0v18.865h5.143a1.467,1.467,0,1,1,0,2.934Z" transform="translate(-60.989 -319.399)" fill="#212e84"/>
        <path id="Path_973" data-name="Path 973" d="M121.268,258.008h-6.611a1.467,1.467,0,0,1-1.467-1.467V237.065a1.467,1.467,0,1,1,2.934,0v18.01H119.8V227.341a3.078,3.078,0,0,1,5.254-2.176l2.3,2.3a1.826,1.826,0,0,0,1.3.538h6.827a1.839,1.839,0,0,0,1.839-1.877,1.882,1.882,0,0,0-1.9-1.8h-5.4a1.467,1.467,0,0,1-1.037-.43l-3.158-3.157a6.14,6.14,0,0,0-4.373-1.811h-1.138l-2.217,1.843a5.379,5.379,0,0,1-6.876,0L109,218.924h-.954a5.15,5.15,0,0,0-5.144,5.144,1.467,1.467,0,1,1-2.934,0,8.087,8.087,0,0,1,8.078-8.078h1.484a1.467,1.467,0,0,1,.938.339l2.625,2.182a2.445,2.445,0,0,0,3.129,0l2.623-2.183a1.467,1.467,0,0,1,.938-.339h1.669a9.058,9.058,0,0,1,6.448,2.671l2.728,2.728h4.792a4.83,4.83,0,0,1,4.836,4.675,4.772,4.772,0,0,1-4.771,4.869h-6.836a4.739,4.739,0,0,1-3.374-1.4l-2.3-2.3a.147.147,0,0,0-.146-.036.144.144,0,0,0-.1.137v29.2a1.467,1.467,0,0,1-1.47,1.47Z" transform="translate(0 -146.392)" fill="#212e84"/>
        <path id="Path_974" data-name="Path 974" d="M104.742,301.971A4.777,4.777,0,0,1,99.97,297.2V285.057a1.467,1.467,0,0,1,2.934,0V297.2a1.839,1.839,0,0,0,3.677,0,1.467,1.467,0,0,1,2.934,0A4.777,4.777,0,0,1,104.742,301.971Z" transform="translate(0 -207.381)" fill="#212e84"/>
        <path id="Path_975" data-name="Path 975" d="M146.158,618.594H101.467a1.467,1.467,0,0,1,0-2.934h44.692a1.467,1.467,0,0,1,0,2.934Z" transform="translate(-0.027 -506.977)" fill="#212e84"/>
        <path id="Path_976" data-name="Path 976" d="M406.7,192.614H399.1a1.467,1.467,0,0,1,0-2.934H406.7a1.467,1.467,0,1,1,0,2.934Z" transform="translate(-268.551 -122.655)" fill="#212e84"/>
        <path id="Path_977" data-name="Path 977" d="M414.308,124.8H399.1a1.467,1.467,0,0,1,0-2.934h15.211a1.467,1.467,0,0,1,0,2.934Z" transform="translate(-268.551 -61.476)" fill="#212e84"/>
    </g>
</svg>
