<svg xmlns="http://www.w3.org/2000/svg" width="45.849" height="45.849" viewBox="0 0 45.849 45.849">
    <path id="Path_191" data-name="Path 191" d="M702.8,386.376A22.924,22.924,0,1,0,725.724,409.3,22.922,22.922,0,0,0,702.8,386.376Zm8.756,18.436c.005.195.008.385.008.583A12.839,12.839,0,0,1,691.8,416.214a9.064,9.064,0,0,0,6.681-1.87,4.519,4.519,0,0,1-4.216-3.134,4.75,4.75,0,0,0,.849.077,4.549,4.549,0,0,0,1.187-.155,4.518,4.518,0,0,1-3.618-4.43v-.057a4.507,4.507,0,0,0,2.045.565,4.524,4.524,0,0,1-1.4-6.026,12.816,12.816,0,0,0,9.305,4.718,4.75,4.75,0,0,1-.117-1.029,4.517,4.517,0,0,1,7.81-3.091,9.052,9.052,0,0,0,2.871-1.1,4.541,4.541,0,0,1-1.985,2.5,9.017,9.017,0,0,0,2.59-.713A9.242,9.242,0,0,1,711.554,404.812Z" transform="translate(-679.875 -386.376)" fill="#212e84"/>
</svg>
