<svg xmlns="http://www.w3.org/2000/svg" width="56.206" height="56.206" viewBox="0 0 56.206 56.206">
    <path id="circle-user" d="M28.1,0a28.1,28.1,0,1,0,28.1,28.1A28.134,28.134,0,0,0,28.1,0ZM18.735,49.564V49.18a9.368,9.368,0,0,1,18.735,0v.384a23.39,23.39,0,0,1-18.735,0Zm23.244-2.607a14.053,14.053,0,0,0-27.752,0,23.419,23.419,0,1,1,27.752,0ZM28.1,11.71a9.368,9.368,0,1,0,9.368,9.368A9.377,9.377,0,0,0,28.1,11.71Zm0,14.052a4.684,4.684,0,1,1,4.684-4.684A4.689,4.689,0,0,1,28.1,25.761Z" fill="#b5d56a"/>
</svg>
