<svg xmlns="http://www.w3.org/2000/svg" width="45.852" height="45.849" viewBox="0 0 45.852 45.849">
    <path id="Path_196" data-name="Path 196" d="M732.212,386.376A22.924,22.924,0,1,0,755.139,409.3,22.924,22.924,0,0,0,732.212,386.376Zm11,23.753a33.4,33.4,0,0,1-.22,3.564,4.79,4.79,0,0,1-.873,2.186,3.142,3.142,0,0,1-2.2.929c-3.082.223-7.7.232-7.7.232s-5.722-.053-7.48-.223a3.71,3.71,0,0,1-2.428-.938,4.8,4.8,0,0,1-.878-2.186,33.9,33.9,0,0,1-.216-3.564V408.46a33.807,33.807,0,0,1,.216-3.562,4.779,4.779,0,0,1,.878-2.183,3.14,3.14,0,0,1,2.2-.934c3.081-.221,7.7-.221,7.7-.221h.008s4.616,0,7.7.221a3.145,3.145,0,0,1,2.2.934,4.77,4.77,0,0,1,.873,2.183,33.308,33.308,0,0,1,.22,3.562Z" transform="translate(-709.287 -386.376)" fill="#212e84"/>

</svg>
